<?xml version="1.0" encoding="UTF-8" standalone="no"?>
<svg
   width="860"
   height="440"
   version="1.1"
   id="svg1449"
   sodipodi:docname="caching-cdn-1.svg"
   inkscape:version="1.2-alpha1 (b6a15bbbed, 2022-02-23)"
   xmlns:inkscape="http://www.inkscape.org/namespaces/inkscape"
   xmlns:sodipodi="http://sodipodi.sourceforge.net/DTD/sodipodi-0.dtd"
   xmlns:xlink="http://www.w3.org/1999/xlink"
   xmlns="http://www.w3.org/2000/svg"
   xmlns:svg="http://www.w3.org/2000/svg"
   xmlns:lucid="lucid">
  <defs
     id="defs1453">
    <linearGradient
       inkscape:collect="always"
       id="linearGradient5160">
      <stop
         style="stop-color:#000000;stop-opacity:1;"
         offset="0"
         id="stop5156" />
      <stop
         style="stop-color:#000000;stop-opacity:0;"
         offset="1"
         id="stop5158" />
    </linearGradient>
    <g
       id="d-4">
      <use
         transform="scale(0.0617284)"
         xlink:href="#Q"
         id="use3405" />
      <use
         transform="matrix(0.0617284,0,0,0.0617284,17.283951,0)"
         xlink:href="#R"
         id="use3407" />
      <use
         transform="matrix(0.0617284,0,0,0.0617284,24.62963,0)"
         xlink:href="#S"
         id="use3409" />
      <use
         transform="matrix(0.0617284,0,0,0.0617284,29.506173,0)"
         xlink:href="#T"
         id="use3411" />
      <use
         transform="matrix(0.0617284,0,0,0.0617284,41.851852,0)"
         xlink:href="#S"
         id="use3413" />
      <use
         transform="matrix(0.0617284,0,0,0.0617284,46.728395,0)"
         xlink:href="#U"
         id="use3415" />
    </g>
    <path
       fill="#3a414a"
       d="m 24,-231 v -30 h 32 v 30 z M 24,0 V -190 H 56 V 0 H 24"
       id="S" />
    <path
       fill="#3a414a"
       d="m 140,-251 c 81,0 123,46 123,126 C 263,-46 219,4 140,4 59,4 17,-45 17,-125 c 0,-80 42,-126 123,-126 z m 0,227 c 63,0 89,-41 89,-101 0,-60 -29,-99 -89,-99 -61,0 -89,39 -89,99 0,60 28,100 89,101"
       id="Q" />
    <path
       fill="#3a414a"
       d="M 114,-163 C 36,-179 61,-72 57,0 H 25 l -1,-190 h 30 c 1,12 -1,29 2,39 6,-27 23,-49 58,-41 v 29"
       id="R" />
    <path
       fill="#3a414a"
       d="M 177,-190 C 167,-65 218,103 67,71 44,65 29,51 23,28 L 55,23 C 70,70 155,55 144,-5 V -35 C 133,-14 115,1 83,1 29,1 15,-40 15,-95 c 0,-56 16,-97 71,-98 29,-1 48,16 59,35 1,-10 0,-23 2,-32 z M 94,-22 c 36,0 50,-32 50,-73 0,-42 -14,-75 -50,-75 -39,0 -46,34 -46,75 0,41 6,73 46,73"
       id="T" />
    <path
       fill="#3a414a"
       d="m 117,-194 c 89,-4 53,116 60,194 h -32 v -121 c 0,-31 -8,-49 -39,-48 C 34,-167 62,-67 57,0 H 25 l -1,-190 h 30 c 1,10 -1,24 2,32 11,-22 29,-35 61,-36"
       id="U" />
    <linearGradient
       inkscape:collect="always"
       xlink:href="#linearGradient5160"
       id="linearGradient5162"
       x1="1.0493828"
       y1="-5.7415288"
       x2="57.746679"
       y2="-5.7415288"
       gradientUnits="userSpaceOnUse" />
  </defs>
  <sodipodi:namedview
     id="namedview1451"
     pagecolor="#ffffff"
     bordercolor="#000000"
     borderopacity="0.25"
     inkscape:pageshadow="2"
     inkscape:pageopacity="0.0"
     inkscape:pagecheckerboard="0"
     inkscape:deskcolor="#d1d1d1"
     showgrid="false"
     inkscape:zoom="0.86395349"
     inkscape:cx="478.61373"
     inkscape:cy="220.49798"
     inkscape:window-width="1280"
     inkscape:window-height="666"
     inkscape:window-x="-6"
     inkscape:window-y="-6"
     inkscape:window-maximized="1"
     inkscape:current-layer="g1447" />
  <g
     transform="translate(-20 -20)"
     lucid:page-tab-id="0_0"
     id="g1447">
    <path
       d="M40 46a6 6 0 0 1 6-6h148a6 6 0 0 1 6 6v388a6 6 0 0 1-6 6H46a6 6 0 0 1-6-6z"
       stroke="#3a414a"
       fill="#fff"
       id="path1238" />
    <use
       xlink:href="#a"
       transform="matrix(1,0,0,1,52,52) translate(30.438271604938272 17.77777777777778)"
       id="use1240" />
    <use
       xlink:href="#b"
       transform="matrix(1,0,0,1,52,52) translate(93.21604938271605 17.77777777777778)"
       id="use1242" />
    <path
       d="M260 46a6 6 0 0 1 6-6h148a6 6 0 0 1 6 6v388a6 6 0 0 1-6 6H266a6 6 0 0 1-6-6z"
       stroke="#3a414a"
       fill="#fff"
       id="path1244" />
    <use
       xlink:href="#c"
       transform="matrix(1,0,0,1,272,52) translate(44.01851851851852 17.77777777777778)"
       id="use1246" />
    <path
       d="M480 46a6 6 0 0 1 6-6h148a6 6 0 0 1 6 6v388a6 6 0 0 1-6 6H486a6 6 0 0 1-6-6z"
       stroke="#3a414a"
       fill="#fff"
       id="path1248" />
    <use
       xlink:href="#d-4"
       transform="matrix(1.0664721,0,0,1.0664721,526.36852,71.832932)"
       id="use3181"
       style="fill:url(#linearGradient5162);fill-opacity:1" />
    <path
       d="M200.94 100h42.19"
       stroke="#3a414a"
       fill="none"
       id="path1252" />
    <path
       d="M200.95 100.5h-.5v-1h.5z"
       stroke="#3a414a"
       stroke-width=".05"
       fill="#3a414a"
       id="path1254" />
    <path
       d="M257.9 100l-14.27 4.64v-9.27z"
       stroke="#3a414a"
       fill="#3a414a"
       id="path1256" />
    <use
       xlink:href="#e"
       transform="matrix(1,0,0,1,216.2881945787772,75.36559168856104) translate(0 10.666666666666668)"
       id="use1258" />
    <path
       d="M700 46a6 6 0 0 1 6-6h148a6 6 0 0 1 6 6v388a6 6 0 0 1-6 6H706a6 6 0 0 1-6-6z"
       stroke="#3a414a"
       fill="#fff"
       id="path1260" />
    <use
       xlink:href="#f"
       transform="matrix(1,0,0,1,712,52) translate(52.598765432098766 17.77777777777778)"
       id="use1262" />
    <path
       d="M640.95 180.17h42.2"
       stroke="#3a414a"
       fill="none"
       id="path1264" />
    <path
       d="M640.96 180.67h-.5v-1h.5z"
       stroke="#3a414a"
       stroke-width=".05"
       fill="#3a414a"
       id="path1266" />
    <path
       d="M697.9 180.17l-14.26 4.63v-9.27z"
       stroke="#3a414a"
       fill="#3a414a"
       id="path1268" />
    <use
       xlink:href="#g"
       transform="matrix(1,0,0,1,650.0792053848795,160.16676958841148) translate(0 10.666666666666668)"
       id="use1270" />
    <path
       d="M420.94 141.37h42.19"
       stroke="#3a414a"
       fill="none"
       id="path1272" />
    <path
       d="M420.96 141.87h-.52v-1h.52z"
       stroke="#3a414a"
       stroke-width=".05"
       fill="#3a414a"
       id="path1274" />
    <path
       d="M477.9 141.37L463.63 146v-9.26z"
       stroke="#3a414a"
       fill="#3a414a"
       id="path1276" />
    <use
       xlink:href="#e"
       transform="matrix(1,0,0,1,436.296061250891,116.73740501204823) translate(0.005000000000000782 10.666666666666668)"
       id="use1278" />
    <path
       d="M699.04 240h-42.19"
       stroke="#3a414a"
       fill="none"
       id="path1280" />
    <path
       d="M699.54 240.5h-.52v-1h.52z"
       stroke="#3a414a"
       stroke-width=".05"
       fill="#3a414a"
       id="path1282" />
    <path
       d="M642.08 240l14.27-4.64v9.28z"
       stroke="#3a414a"
       fill="#3a414a"
       id="path1284" />
    <use
       xlink:href="#h"
       transform="matrix(1,0,0,1,655.5925925925926,215.36474508437578) translate(0 10.666666666666668)"
       id="use1286" />
    <path
       d="M479.05 284.83h-42.2"
       stroke="#3a414a"
       fill="none"
       id="path1288" />
    <path
       d="M479.55 285.33h-.52v-1h.52z"
       stroke="#3a414a"
       stroke-width=".05"
       fill="#3a414a"
       id="path1290" />
    <path
       d="M422.1 284.83l14.26-4.64v9.26z"
       stroke="#3a414a"
       fill="#3a414a"
       id="path1292" />
    <use
       xlink:href="#i"
       transform="matrix(1,0,0,1,420.6937085895108,260.19039531326854) translate(0 10.666666666666666)"
       id="use1294" />
    <path
       d="M200.98 344.08h42.19"
       stroke="#3a414a"
       fill="none"
       id="path1296" />
    <path
       d="M201 344.58h-.52v-1h.52z"
       stroke="#3a414a"
       stroke-width=".05"
       fill="#3a414a"
       id="path1298" />
    <path
       d="M257.94 344.08l-14.27 4.63v-9.26z"
       stroke="#3a414a"
       fill="#3a414a"
       id="path1300" />
    <use
       xlink:href="#e"
       transform="matrix(1,0,0,1,209.80990895430065,324.07871860389434) translate(0 10.666666666666668)"
       id="use1302" />
    <path
       d="M259.07 401.77h-42.2"
       stroke="#3a414a"
       fill="none"
       id="path1304" />
    <path
       d="M259.57 402.27h-.52v-1h.52z"
       stroke="#3a414a"
       stroke-width=".05"
       fill="#3a414a"
       id="path1306" />
    <path
       d="M202.1 401.77l14.28-4.63v9.27z"
       stroke="#3a414a"
       fill="#3a414a"
       id="path1308" />
    <use
       xlink:href="#j"
       transform="matrix(1,0,0,1,200.21369221249918,377.13611868834545) translate(0 10.666666666666668)"
       id="use1310" />
    <path
       d="M259.05 306.66h-42.2"
       stroke="#3a414a"
       fill="none"
       id="path1312" />
    <path
       d="M259.55 307.16h-.5v-1h.5z"
       stroke="#3a414a"
       stroke-width=".05"
       fill="#3a414a"
       id="path1314" />
    <path
       d="M202.1 306.66l14.26-4.64v9.27z"
       stroke="#3a414a"
       fill="#3a414a"
       id="path1316" />
    <use
       xlink:href="#j"
       transform="matrix(1,0,0,1,200.69785948449803,282.02047162167304) translate(0 10.666666666666668)"
       id="use1318" />
    <defs
       id="defs1445">
      <path
         fill="#3a414a"
         d="M212-179c-10-28-35-45-73-45-59 0-87 40-87 99 0 60 29 101 89 101 43 0 62-24 78-52l27 14C228-24 195 4 139 4 59 4 22-46 18-125c-6-104 99-153 187-111 19 9 31 26 39 46"
         id="k" />
      <path
         fill="#3a414a"
         d="M24 0v-261h32V0H24"
         id="l" />
      <path
         fill="#3a414a"
         d="M24-231v-30h32v30H24zM24 0v-190h32V0H24"
         id="m" />
      <path
         fill="#3a414a"
         d="M100-194c63 0 86 42 84 106H49c0 40 14 67 53 68 26 1 43-12 49-29l28 8c-11 28-37 45-77 45C44 4 14-33 15-96c1-61 26-98 85-98zm52 81c6-60-76-77-97-28-3 7-6 17-6 28h103"
         id="n" />
      <path
         fill="#3a414a"
         d="M117-194c89-4 53 116 60 194h-32v-121c0-31-8-49-39-48C34-167 62-67 57 0H25l-1-190h30c1 10-1 24 2 32 11-22 29-35 61-36"
         id="o" />
      <path
         fill="#3a414a"
         d="M59-47c-2 24 18 29 38 22v24C64 9 27 4 27-40v-127H5v-23h24l9-43h21v43h35v23H59v120"
         id="p" />
      <g
         id="a">
        <use
           transform="matrix(0.06172839506172839,0,0,0.06172839506172839,0,0)"
           xlink:href="#k"
           id="use1326" />
        <use
           transform="matrix(0.06172839506172839,0,0,0.06172839506172839,15.987654320987653,0)"
           xlink:href="#l"
           id="use1328" />
        <use
           transform="matrix(0.06172839506172839,0,0,0.06172839506172839,20.864197530864196,0)"
           xlink:href="#m"
           id="use1330" />
        <use
           transform="matrix(0.06172839506172839,0,0,0.06172839506172839,25.74074074074074,0)"
           xlink:href="#n"
           id="use1332" />
        <use
           transform="matrix(0.06172839506172839,0,0,0.06172839506172839,38.08641975308642,0)"
           xlink:href="#o"
           id="use1334" />
        <use
           transform="matrix(0.06172839506172839,0,0,0.06172839506172839,50.432098765432094,0)"
           xlink:href="#p"
           id="use1336" />
      </g>
      <path
         fill="#3a414a"
         d="M27 0v-27h64v-190l-56 39v-29l58-41h29v221h61V0H27"
         id="q" />
      <use
         transform="matrix(0.06172839506172839,0,0,0.06172839506172839,0,0)"
         xlink:href="#q"
         id="b" />
      <path
         fill="#3a414a"
         d="M30-248c118-7 216 8 213 122C240-48 200 0 122 0H30v-248zM63-27c89 8 146-16 146-99s-60-101-146-95v194"
         id="r" />
      <path
         fill="#3a414a"
         d="M190 0L58-211 59 0H30v-248h39L202-35l-2-213h31V0h-41"
         id="s" />
      <g
         id="c">
        <use
           transform="matrix(0.06172839506172839,0,0,0.06172839506172839,0,0)"
           xlink:href="#k"
           id="use1343" />
        <use
           transform="matrix(0.06172839506172839,0,0,0.06172839506172839,15.987654320987653,0)"
           xlink:href="#r"
           id="use1345" />
        <use
           transform="matrix(0.06172839506172839,0,0,0.06172839506172839,31.975308641975307,0)"
           xlink:href="#s"
           id="use1347" />
      </g>
      <path
         fill="#3a414a"
         d="M185-189c-5-48-123-54-124 2 14 75 158 14 163 119 3 78-121 87-175 55-17-10-28-26-33-46l33-7c5 56 141 63 141-1 0-78-155-14-162-118-5-82 145-84 179-34 5 7 8 16 11 25"
         id="t" />
      <path
         fill="#3a414a"
         d="M114-163C36-179 61-72 57 0H25l-1-190h30c1 12-1 29 2 39 6-27 23-49 58-41v29"
         id="u" />
      <path
         fill="#3a414a"
         d="M108 0H70L1-190h34L89-25l56-165h34"
         id="v" />
      <g
         id="d">
        <use
           transform="matrix(0.06172839506172839,0,0,0.06172839506172839,0,0)"
           xlink:href="#t"
           id="use1353" />
        <use
           transform="matrix(0.06172839506172839,0,0,0.06172839506172839,14.814814814814813,0)"
           xlink:href="#n"
           id="use1355" />
        <use
           transform="matrix(0.06172839506172839,0,0,0.06172839506172839,27.160493827160494,0)"
           xlink:href="#u"
           id="use1357" />
        <use
           transform="matrix(0.06172839506172839,0,0,0.06172839506172839,34.50617283950617,0)"
           xlink:href="#v"
           id="use1359" />
        <use
           transform="matrix(0.06172839506172839,0,0,0.06172839506172839,45.61728395061728,0)"
           xlink:href="#n"
           id="use1361" />
        <use
           transform="matrix(0.06172839506172839,0,0,0.06172839506172839,57.962962962962955,0)"
           xlink:href="#u"
           id="use1363" />
      </g>
      <path
         fill="#333"
         d="M67-125c0 54 23 88 75 88 28 0 53-7 68-21v-34h-60v-39h108v91C232-14 192 4 140 4 58 4 20-42 15-125 8-236 126-280 215-234c19 10 29 26 37 47l-47 15c-11-23-29-39-63-39-53 1-75 33-75 86"
         id="w" />
      <path
         fill="#333"
         d="M24 0v-248h195v40H76v63h132v40H76v65h150V0H24"
         id="x" />
      <path
         fill="#333"
         d="M136-208V0H84v-208H4v-40h212v40h-80"
         id="y" />
      <g
         id="e">
        <use
           transform="matrix(0.03703703703703704,0,0,0.03703703703703704,0,0)"
           xlink:href="#w"
           id="use1369" />
        <use
           transform="matrix(0.03703703703703704,0,0,0.03703703703703704,10.370370370370372,0)"
           xlink:href="#x"
           id="use1371" />
        <use
           transform="matrix(0.03703703703703704,0,0,0.03703703703703704,19.259259259259256,0)"
           xlink:href="#y"
           id="use1373" />
      </g>
      <path
         fill="#3a414a"
         d="M160-131c35 5 61 23 61 61C221 17 115-2 30 0v-248c76 3 177-17 177 60 0 33-19 50-47 57zm-97-11c50-1 110 9 110-42 0-47-63-36-110-37v79zm0 115c55-2 124 14 124-45 0-56-70-42-124-44v89"
         id="z" />
      <g
         id="f">
        <use
           transform="matrix(0.06172839506172839,0,0,0.06172839506172839,0,0)"
           xlink:href="#r"
           id="use1377" />
        <use
           transform="matrix(0.06172839506172839,0,0,0.06172839506172839,15.987654320987653,0)"
           xlink:href="#z"
           id="use1379" />
      </g>
      <path
         fill="#333"
         d="M240-174c0 40-23 61-54 70L253 0h-59l-57-94H76V0H24v-248c93 4 217-23 216 74zM76-134c48-2 112 12 112-38 0-48-66-32-112-35v73"
         id="A" />
      <path
         fill="#333"
         d="M185-48c-13 30-37 53-82 52C43 2 14-33 14-96s30-98 90-98c62 0 83 45 84 108H66c0 31 8 55 39 56 18 0 30-7 34-22zm-45-69c5-46-57-63-70-21-2 6-4 13-4 21h74"
         id="B" />
      <path
         fill="#333"
         d="M133-34C117-15 103 5 69 4 32 3 11-16 11-54c-1-60 55-63 116-61 1-26-3-47-28-47-18 1-26 9-28 27l-52-2c7-38 36-58 82-57s74 22 75 68l1 82c-1 14 12 18 25 15v27c-30 8-71 5-69-32zm-48 3c29 0 43-24 42-57-32 0-66-3-65 30 0 17 8 27 23 27"
         id="C" />
      <path
         fill="#333"
         d="M88-194c31-1 46 15 58 34l-1-101h50l1 261h-48c-2-10 0-23-3-31C134-8 116 4 84 4 32 4 16-41 15-95c0-56 19-97 73-99zm17 164c33 0 40-30 41-66 1-37-9-64-41-64s-38 30-39 65c0 43 13 65 39 65"
         id="D" />
      <g
         id="g">
        <use
           transform="matrix(0.03703703703703704,0,0,0.03703703703703704,0,0)"
           xlink:href="#A"
           id="use1386" />
        <use
           transform="matrix(0.03703703703703704,0,0,0.03703703703703704,9.592592592592593,0)"
           xlink:href="#B"
           id="use1388" />
        <use
           transform="matrix(0.03703703703703704,0,0,0.03703703703703704,17,0)"
           xlink:href="#C"
           id="use1390" />
        <use
           transform="matrix(0.03703703703703704,0,0,0.03703703703703704,24.407407407407405,0)"
           xlink:href="#D"
           id="use1392" />
      </g>
      <path
         fill="#333"
         d="M24-248c120-7 223 5 221 122C244-46 201 0 124 0H24v-248zM76-40c74 7 117-18 117-86 0-67-45-88-117-82v168"
         id="E" />
      <path
         fill="#333"
         d="M115-3C79 11 28 4 28-45v-112H4v-33h27l15-45h31v45h36v33H77v99c-1 23 16 31 38 25v30"
         id="F" />
      <g
         id="h">
        <use
           transform="matrix(0.03703703703703704,0,0,0.03703703703703704,0,0)"
           xlink:href="#E"
           id="use1397" />
        <use
           transform="matrix(0.03703703703703704,0,0,0.03703703703703704,9.592592592592593,0)"
           xlink:href="#C"
           id="use1399" />
        <use
           transform="matrix(0.03703703703703704,0,0,0.03703703703703704,17,0)"
           xlink:href="#F"
           id="use1401" />
        <use
           transform="matrix(0.03703703703703704,0,0,0.03703703703703704,21.407407407407412,0)"
           xlink:href="#C"
           id="use1403" />
      </g>
      <path
         fill="#333"
         d="M137-138c1-29-70-34-71-4 15 46 118 7 119 86 1 83-164 76-172 9l43-7c4 19 20 25 44 25 33 8 57-30 24-41C81-84 22-81 20-136c-2-80 154-74 161-7"
         id="G" />
      <path
         fill="#333"
         d="M110-194c64 0 96 36 96 99 0 64-35 99-97 99-61 0-95-36-95-99 0-62 34-99 96-99zm-1 164c35 0 45-28 45-65 0-40-10-65-43-65-34 0-45 26-45 65 0 36 10 65 43 65"
         id="H" />
      <path
         fill="#333"
         d="M85 4C-2 5 27-109 22-190h50c7 57-23 150 33 157 60-5 35-97 40-157h50l1 190h-47c-2-12 1-28-3-38-12 25-28 42-61 42"
         id="I" />
      <path
         fill="#333"
         d="M135-150c-39-12-60 13-60 57V0H25l-1-190h47c2 13-1 29 3 40 6-28 27-53 61-41v41"
         id="J" />
      <path
         fill="#333"
         d="M190-63c-7 42-38 67-86 67-59 0-84-38-90-98-12-110 154-137 174-36l-49 2c-2-19-15-32-35-32-30 0-35 28-38 64-6 74 65 87 74 30"
         id="K" />
      <g
         id="i">
        <use
           transform="matrix(0.037037037037037035,0,0,0.037037037037037035,0,0)"
           xlink:href="#A"
           id="use1411" />
        <use
           transform="matrix(0.037037037037037035,0,0,0.037037037037037035,9.592592592592592,0)"
           xlink:href="#B"
           id="use1413" />
        <use
           transform="matrix(0.037037037037037035,0,0,0.037037037037037035,17,0)"
           xlink:href="#G"
           id="use1415" />
        <use
           transform="matrix(0.037037037037037035,0,0,0.037037037037037035,24.407407407407405,0)"
           xlink:href="#H"
           id="use1417" />
        <use
           transform="matrix(0.037037037037037035,0,0,0.037037037037037035,32.51851851851852,0)"
           xlink:href="#I"
           id="use1419" />
        <use
           transform="matrix(0.037037037037037035,0,0,0.037037037037037035,40.62962962962963,0)"
           xlink:href="#J"
           id="use1421" />
        <use
           transform="matrix(0.037037037037037035,0,0,0.037037037037037035,45.814814814814824,0)"
           xlink:href="#K"
           id="use1423" />
        <use
           transform="matrix(0.037037037037037035,0,0,0.037037037037037035,53.22222222222222,0)"
           xlink:href="#B"
           id="use1425" />
      </g>
      <g
         id="j">
        <use
           transform="matrix(0.03703703703703704,0,0,0.03703703703703704,0,0)"
           xlink:href="#A"
           id="use1428" />
        <use
           transform="matrix(0.03703703703703704,0,0,0.03703703703703704,9.592592592592593,0)"
           xlink:href="#B"
           id="use1430" />
        <use
           transform="matrix(0.03703703703703704,0,0,0.03703703703703704,17,0)"
           xlink:href="#G"
           id="use1432" />
        <use
           transform="matrix(0.03703703703703704,0,0,0.03703703703703704,24.407407407407405,0)"
           xlink:href="#H"
           id="use1434" />
        <use
           transform="matrix(0.03703703703703704,0,0,0.03703703703703704,32.51851851851852,0)"
           xlink:href="#I"
           id="use1436" />
        <use
           transform="matrix(0.03703703703703704,0,0,0.03703703703703704,40.62962962962963,0)"
           xlink:href="#J"
           id="use1438" />
        <use
           transform="matrix(0.03703703703703704,0,0,0.03703703703703704,45.814814814814824,0)"
           xlink:href="#K"
           id="use1440" />
        <use
           transform="matrix(0.03703703703703704,0,0,0.03703703703703704,53.22222222222223,0)"
           xlink:href="#B"
           id="use1442" />
      </g>
    </defs>
  </g>
</svg>
