<?xml version="1.0" encoding="UTF-8" standalone="no"?>
<svg
   width="1040"
   height="360"
   version="1.1"
   id="svg2306"
   sodipodi:docname="web-api-design-oauth-3.svg"
   inkscape:version="1.2.1 (9c6d41e, 2022-07-14)"
   xmlns:inkscape="http://www.inkscape.org/namespaces/inkscape"
   xmlns:sodipodi="http://sodipodi.sourceforge.net/DTD/sodipodi-0.dtd"
   xmlns:xlink="http://www.w3.org/1999/xlink"
   xmlns="http://www.w3.org/2000/svg"
   xmlns:svg="http://www.w3.org/2000/svg"
   xmlns:lucid="lucid">
  <defs
     id="defs2310" />
  <sodipodi:namedview
     id="namedview2308"
     pagecolor="#ffffff"
     bordercolor="#000000"
     borderopacity="0.25"
     inkscape:showpageshadow="2"
     inkscape:pageopacity="0.0"
     inkscape:pagecheckerboard="0"
     inkscape:deskcolor="#d1d1d1"
     showgrid="false"
     inkscape:zoom="1.1083107"
     inkscape:cx="714.14989"
     inkscape:cy="94.738773"
     inkscape:window-width="1309"
     inkscape:window-height="456"
     inkscape:window-x="0"
     inkscape:window-y="25"
     inkscape:window-maximized="0"
     inkscape:current-layer="g2304" />
  <g
     transform="translate(-20 -20)"
     lucid:page-tab-id="0_0"
     id="g2304">
    <path
       d="M320 46a6 6 0 0 1 6-6h148a6 6 0 0 1 6 6v308a6 6 0 0 1-6 6H326a6 6 0 0 1-6-6z"
       stroke="#3a414a"
       fill="#fff"
       id="path1908" />
    <use
       xlink:href="#a"
       transform="matrix(1,0,0,1,332,52.000000000000114) translate(48.24691358024691 17.77777777777778)"
       id="use1910" />
    <path
       d="M600 46a6 6 0 0 1 6-6h148a6 6 0 0 1 6 6v308a6 6 0 0 1-6 6H606a6 6 0 0 1-6-6z"
       stroke="#3a414a"
       fill="#fff"
       id="path1912" />
    <use
       xlink:href="#b"
       transform="matrix(1,0,0,1,612,52) translate(32.22839506172839 17.77777777777778)"
       id="use1914" />
    <use
       xlink:href="#c"
       transform="matrix(1,0,0,1,612,52) translate(35.345679012345684 44.44444444444444)"
       id="use1916" />
    <path
       d="M40 46a6 6 0 0 1 6-6h148a6 6 0 0 1 6 6v308a6 6 0 0 1-6 6H46a6 6 0 0 1-6-6z"
       stroke="#3a414a"
       fill="#fff"
       id="path1918" />
    <use
       xlink:href="#d"
       transform="matrix(1,0,0,1,52,52) translate(52.598765432098766 17.77777777777778)"
       id="use1920" />
    <path
       d="M319.07 339.58h-102.2"
       stroke="#3a414a"
       fill="none"
       id="path1922" />
    <path
       d="M319.57 340.08h-.5v-1h.5z"
       stroke="#3a414a"
       stroke-width=".05"
       fill="#3a414a"
       id="path1924" />
    <path
       d="M202.1 339.58l14.28-4.63v9.27z"
       stroke="#3a414a"
       fill="#3a414a"
       id="path1926" />
    <use
       xlink:href="#e"
       transform="matrix(1,0,0,1,218.2371176826539,303.5830970741696) translate(26.986481481481484 10.666666666666668)"
       id="use1928" />
    <use
       xlink:href="#f"
       transform="matrix(1,0,0,1,218.2371176826539,303.5830970741696) translate(0.005000000000002558 26.666666666666668)"
       id="use1930" />
    <use
       xlink:href="#g"
       transform="matrix(1,0,0,1,218.2371176826539,303.5830970741696) translate(48.15314814814815 26.666666666666668)"
       id="use1932" />
    <path
       d="M200.94 86.85h102.18"
       stroke="#3a414a"
       fill="none"
       id="path1934" />
    <path
       d="M200.95 87.35h-.5v-1h.5z"
       stroke="#3a414a"
       stroke-width=".05"
       fill="#3a414a"
       id="path1936" />
    <path
       d="M317.9 86.85l-14.28 4.63V82.2z"
       stroke="#3a414a"
       fill="#3a414a"
       id="path1938" />
    <use
       xlink:href="#h"
       transform="matrix(1,0,0,1,218.17661644917325,50.846074685275596) translate(31.838333333333335 10.666666666666668)"
       id="use1940" />
    <use
       xlink:href="#f"
       transform="matrix(1,0,0,1,218.17661644917325,50.846074685275596) translate(0.005000000000002558 26.666666666666668)"
       id="use1942" />
    <use
       xlink:href="#g"
       transform="matrix(1,0,0,1,218.17661644917325,50.846074685275596) translate(48.15314814814815 26.666666666666668)"
       id="use1944" />
    <path
       d="M200.98 263.8h102.19"
       stroke="#3a414a"
       fill="none"
       id="path1946" />
    <path
       d="M201 264.3h-.52v-1h.5z"
       stroke="#3a414a"
       stroke-width=".05"
       fill="#3a414a"
       id="path1948" />
    <path
       d="M317.93 263.8l-14.26 4.63v-9.27z"
       stroke="#3a414a"
       fill="#3a414a"
       id="path1950" />
    <use
       xlink:href="#h"
       transform="matrix(1,0,0,1,217.8856416345307,227.7939693119082) translate(32.17166666666667 10.666666666666668)"
       id="use1952" />
    <use
       xlink:href="#i"
       transform="matrix(1,0,0,1,217.8856416345307,227.7939693119082) translate(0.005000000000002558 26.666666666666668)"
       id="use1954" />
    <use
       xlink:href="#g"
       transform="matrix(1,0,0,1,217.8856416345307,227.7939693119082) translate(48.819814814814826 26.666666666666668)"
       id="use1956" />
    <path
       d="M880 46a6 6 0 0 1 6-6h148a6 6 0 0 1 6 6v308a6 6 0 0 1-6 6H886a6 6 0 0 1-6-6z"
       stroke="#3a414a"
       fill="#fff"
       id="path1958" />
    <use
       xlink:href="#c"
       transform="translate(927.34568,76.594416)"
       id="use1962" />
    <path
       d="M480.94 123.76h382.19"
       stroke="#3a414a"
       fill="none"
       id="path1964" />
    <path
       d="M480.96 124.26h-.5l-.02-1h.52z"
       stroke="#3a414a"
       stroke-width=".05"
       fill="#3a414a"
       id="path1966" />
    <path
       d="M877.9 123.76l-14.27 4.63v-9.28z"
       stroke="#3a414a"
       fill="#3a414a"
       id="path1968" />
    <use
       xlink:href="#j"
       transform="matrix(1,0,0,1,504.5653817817814,103.75602264058557) translate(0 10.666666666666668)"
       id="use1970" />
    <use
       xlink:href="#k"
       transform="matrix(1,0,0,1,504.5653817817814,103.75602264058557) translate(23.629629629629633 10.666666666666668)"
       id="use1972" />
    <use
       xlink:href="#l"
       transform="matrix(1,0,0,1,504.5653817817814,103.75602264058557) translate(113.74074074074076 10.666666666666668)"
       id="use1974" />
    <path
       d="M879.03 159.58H776.83"
       stroke="#3a414a"
       fill="none"
       id="path1976" />
    <path
       d="M879.53 160.08H879v-1h.53z"
       stroke="#3a414a"
       stroke-width=".05"
       fill="#3a414a"
       id="path1978" />
    <path
       d="M762.07 159.58l14.27-4.64v9.27z"
       stroke="#3a414a"
       fill="#3a414a"
       id="path1980" />
    <use
       xlink:href="#m"
       transform="matrix(1,0,0,1,760.7867918600656,134.942973569852) translate(0 10.666666666666666)"
       id="use1982" />
    <use
       xlink:href="#n"
       transform="matrix(1,0,0,1,760.7867918600656,134.942973569852) translate(14.814814814814813 10.666666666666666)"
       id="use1984" />
    <path
       d="M760.96 187.26h102.2"
       stroke="#3a414a"
       fill="none"
       id="path1986" />
    <path
       d="M760.97 187.76h-.5v-1h.5z"
       stroke="#3a414a"
       stroke-width=".05"
       fill="#3a414a"
       id="path1988" />
    <path
       d="M877.92 187.26l-14.27 4.64v-9.27z"
       stroke="#3a414a"
       fill="#3a414a"
       id="path1990" />
    <use
       xlink:href="#o"
       transform="matrix(1,0,0,1,804.1265806729169,167.26333007360222) translate(0 10.666666666666668)"
       id="use1992" />
    <path
       d="M879.04 229.6h-382.2"
       stroke="#3a414a"
       fill="none"
       id="path1994" />
    <path
       d="M879.54 230.1h-.5v-1h.5z"
       stroke="#3a414a"
       stroke-width=".05"
       fill="#3a414a"
       id="path1996" />
    <path
       d="M482.1 229.6l14.25-4.64v9.27z"
       stroke="#3a414a"
       fill="#3a414a"
       id="path1998" />
    <g
       id="g2002">
      <use
         xlink:href="#p"
         transform="matrix(1,0,0,1,492.5955732438859,204.9623209137742) translate(0 10.666666666666668)"
         id="use2000" />
    </g>
    <path
       d="M481 294.73h102.17"
       stroke="#3a414a"
       fill="none"
       id="path2004" />
    <path
       d="M481 295.23h-.5v-1h.5z"
       stroke="#3a414a"
       stroke-width=".05"
       fill="#3a414a"
       id="path2006" />
    <path
       d="M597.94 294.73l-14.27 4.64v-9.27z"
       stroke="#3a414a"
       fill="#3a414a"
       id="path2008" />
    <g
       id="g2016">
      <use
         xlink:href="#q"
         transform="matrix(1,0,0,1,498.22638152898537,258.73403608823065) translate(0 10.666666666666668)"
         id="use2010" />
      <use
         xlink:href="#f"
         transform="matrix(1,0,0,1,498.22638152898537,258.73403608823065) translate(0 26.666666666666668)"
         id="use2012" />
      <use
         xlink:href="#g"
         transform="matrix(1,0,0,1,498.22638152898537,258.73403608823065) translate(48.148148148148145 26.666666666666668)"
         id="use2014" />
    </g>
    <path
       d="M599.07 320.8h-102.2"
       stroke="#3a414a"
       fill="none"
       id="path2018" />
    <path
       d="M599.57 321.3h-.52v-1h.52z"
       stroke="#3a414a"
       stroke-width=".05"
       fill="#3a414a"
       id="path2020" />
    <path
       d="M482.1 320.8l14.28-4.65v9.27z"
       stroke="#3a414a"
       fill="#3a414a"
       id="path2022" />
    <g
       id="g2028">
      <use
         xlink:href="#r"
         transform="matrix(1,0,0,1,498.23261819529625,300.78700033989963) translate(0 10.666666666666668)"
         id="use2024" />
      <use
         xlink:href="#s"
         transform="matrix(1,0,0,1,498.23261819529625,300.78700033989963) translate(48.148148148148145 10.666666666666668)"
         id="use2026" />
    </g>
    <defs
       id="defs2302">
      <path
         fill="#3a414a"
         d="M205 0l-28-72H64L36 0H1l101-248h38L239 0h-34zm-38-99l-47-123c-12 45-31 82-46 123h93"
         id="t" />
      <path
         fill="#3a414a"
         d="M115-194c55 1 70 41 70 98S169 2 115 4C84 4 66-9 55-30l1 105H24l-1-265h31l2 30c10-21 28-34 59-34zm-8 174c40 0 45-34 45-75s-6-73-45-74c-42 0-51 32-51 76 0 43 10 73 51 73"
         id="u" />
      <g
         id="a">
        <use
           transform="matrix(0.06172839506172839,0,0,0.06172839506172839,0,0)"
           xlink:href="#t"
           id="use2032" />
        <use
           transform="matrix(0.06172839506172839,0,0,0.06172839506172839,14.814814814814813,0)"
           xlink:href="#u"
           id="use2034" />
        <use
           transform="matrix(0.06172839506172839,0,0,0.06172839506172839,27.160493827160494,0)"
           xlink:href="#u"
           id="use2036" />
      </g>
      <path
         fill="#3a414a"
         d="M33 0v-248h34V0H33"
         id="v" />
      <path
         fill="#3a414a"
         d="M85-194c31 0 48 13 60 33l-1-100h32l1 261h-30c-2-10 0-23-3-31C134-8 116 4 85 4 32 4 16-35 15-94c0-66 23-100 70-100zm9 24c-40 0-46 34-46 75 0 40 6 74 45 74 42 0 51-32 51-76 0-42-9-74-50-73"
         id="w" />
      <path
         fill="#3a414a"
         d="M100-194c63 0 86 42 84 106H49c0 40 14 67 53 68 26 1 43-12 49-29l28 8c-11 28-37 45-77 45C44 4 14-33 15-96c1-61 26-98 85-98zm52 81c6-60-76-77-97-28-3 7-6 17-6 28h103"
         id="x" />
      <path
         fill="#3a414a"
         d="M117-194c89-4 53 116 60 194h-32v-121c0-31-8-49-39-48C34-167 62-67 57 0H25l-1-190h30c1 10-1 24 2 32 11-22 29-35 61-36"
         id="y" />
      <path
         fill="#3a414a"
         d="M59-47c-2 24 18 29 38 22v24C64 9 27 4 27-40v-127H5v-23h24l9-43h21v43h35v23H59v120"
         id="z" />
      <path
         fill="#3a414a"
         d="M24-231v-30h32v30H24zM24 0v-190h32V0H24"
         id="A" />
      <path
         fill="#3a414a"
         d="M179-190L93 31C79 59 56 82 12 73V49c39 6 53-20 64-50L1-190h34L92-34l54-156h33"
         id="B" />
      <g
         id="b">
        <use
           transform="matrix(0.06172839506172839,0,0,0.06172839506172839,0,0)"
           xlink:href="#v"
           id="use2046" />
        <use
           transform="matrix(0.06172839506172839,0,0,0.06172839506172839,6.172839506172839,0)"
           xlink:href="#w"
           id="use2048" />
        <use
           transform="matrix(0.06172839506172839,0,0,0.06172839506172839,18.51851851851852,0)"
           xlink:href="#x"
           id="use2050" />
        <use
           transform="matrix(0.06172839506172839,0,0,0.06172839506172839,30.864197530864196,0)"
           xlink:href="#y"
           id="use2052" />
        <use
           transform="matrix(0.06172839506172839,0,0,0.06172839506172839,43.20987654320987,0)"
           xlink:href="#z"
           id="use2054" />
        <use
           transform="matrix(0.06172839506172839,0,0,0.06172839506172839,49.382716049382715,0)"
           xlink:href="#A"
           id="use2056" />
        <use
           transform="matrix(0.06172839506172839,0,0,0.06172839506172839,54.25925925925926,0)"
           xlink:href="#z"
           id="use2058" />
        <use
           transform="matrix(0.06172839506172839,0,0,0.06172839506172839,60.4320987654321,0)"
           xlink:href="#B"
           id="use2060" />
      </g>
      <path
         fill="#3a414a"
         d="M185-189c-5-48-123-54-124 2 14 75 158 14 163 119 3 78-121 87-175 55-17-10-28-26-33-46l33-7c5 56 141 63 141-1 0-78-155-14-162-118-5-82 145-84 179-34 5 7 8 16 11 25"
         id="C" />
      <path
         fill="#3a414a"
         d="M114-163C36-179 61-72 57 0H25l-1-190h30c1 12-1 29 2 39 6-27 23-49 58-41v29"
         id="D" />
      <path
         fill="#3a414a"
         d="M108 0H70L1-190h34L89-25l56-165h34"
         id="E" />
      <g
         id="c">
        <use
           transform="matrix(0.06172839506172839,0,0,0.06172839506172839,0,0)"
           xlink:href="#C"
           id="use2066" />
        <use
           transform="matrix(0.06172839506172839,0,0,0.06172839506172839,14.814814814814813,0)"
           xlink:href="#x"
           id="use2068" />
        <use
           transform="matrix(0.06172839506172839,0,0,0.06172839506172839,27.160493827160494,0)"
           xlink:href="#D"
           id="use2070" />
        <use
           transform="matrix(0.06172839506172839,0,0,0.06172839506172839,34.50617283950617,0)"
           xlink:href="#E"
           id="use2072" />
        <use
           transform="matrix(0.06172839506172839,0,0,0.06172839506172839,45.61728395061728,0)"
           xlink:href="#x"
           id="use2074" />
        <use
           transform="matrix(0.06172839506172839,0,0,0.06172839506172839,57.962962962962955,0)"
           xlink:href="#D"
           id="use2076" />
      </g>
      <path
         fill="#3a414a"
         d="M30-248c118-7 216 8 213 122C240-48 200 0 122 0H30v-248zM63-27c89 8 146-16 146-99s-60-101-146-95v194"
         id="F" />
      <path
         fill="#3a414a"
         d="M160-131c35 5 61 23 61 61C221 17 115-2 30 0v-248c76 3 177-17 177 60 0 33-19 50-47 57zm-97-11c50-1 110 9 110-42 0-47-63-36-110-37v79zm0 115c55-2 124 14 124-45 0-56-70-42-124-44v89"
         id="G" />
      <g
         id="d">
        <use
           transform="matrix(0.06172839506172839,0,0,0.06172839506172839,0,0)"
           xlink:href="#F"
           id="use2081" />
        <use
           transform="matrix(0.06172839506172839,0,0,0.06172839506172839,15.987654320987653,0)"
           xlink:href="#G"
           id="use2083" />
      </g>
      <path
         fill="#333"
         d="M137-138c1-29-70-34-71-4 15 46 118 7 119 86 1 83-164 76-172 9l43-7c4 19 20 25 44 25 33 8 57-30 24-41C81-84 22-81 20-136c-2-80 154-74 161-7"
         id="H" />
      <path
         fill="#333"
         d="M133-34C117-15 103 5 69 4 32 3 11-16 11-54c-1-60 55-63 116-61 1-26-3-47-28-47-18 1-26 9-28 27l-52-2c7-38 36-58 82-57s74 22 75 68l1 82c-1 14 12 18 25 15v27c-30 8-71 5-69-32zm-48 3c29 0 43-24 42-57-32 0-66-3-65 30 0 17 8 27 23 27"
         id="I" />
      <path
         fill="#333"
         d="M128 0H69L1-190h53L99-40l48-150h52"
         id="J" />
      <path
         fill="#333"
         d="M185-48c-13 30-37 53-82 52C43 2 14-33 14-96s30-98 90-98c62 0 83 45 84 108H66c0 31 8 55 39 56 18 0 30-7 34-22zm-45-69c5-46-57-63-70-21-2 6-4 13-4 21h74"
         id="K" />
      <g
         id="e">
        <use
           transform="matrix(0.03703703703703704,0,0,0.03703703703703704,0,0)"
           xlink:href="#H"
           id="use2090" />
        <use
           transform="matrix(0.03703703703703704,0,0,0.03703703703703704,7.407407407407408,0)"
           xlink:href="#I"
           id="use2092" />
        <use
           transform="matrix(0.03703703703703704,0,0,0.03703703703703704,14.814814814814817,0)"
           xlink:href="#J"
           id="use2094" />
        <use
           transform="matrix(0.03703703703703704,0,0,0.03703703703703704,22.222222222222225,0)"
           xlink:href="#K"
           id="use2096" />
      </g>
      <path
         fill="#333"
         d="M190-63c-7 42-38 67-86 67-59 0-84-38-90-98-12-110 154-137 174-36l-49 2c-2-19-15-32-35-32-30 0-35 28-38 64-6 74 65 87 74 30"
         id="L" />
      <g
         id="f">
        <use
           transform="matrix(0.03703703703703704,0,0,0.03703703703703704,0,0)"
           xlink:href="#I"
           id="use2100" />
        <use
           transform="matrix(0.03703703703703704,0,0,0.03703703703703704,7.407407407407408,0)"
           xlink:href="#L"
           id="use2102" />
        <use
           transform="matrix(0.03703703703703704,0,0,0.03703703703703704,14.814814814814817,0)"
           xlink:href="#L"
           id="use2104" />
        <use
           transform="matrix(0.03703703703703704,0,0,0.03703703703703704,22.222222222222225,0)"
           xlink:href="#K"
           id="use2106" />
        <use
           transform="matrix(0.03703703703703704,0,0,0.03703703703703704,29.629629629629633,0)"
           xlink:href="#H"
           id="use2108" />
        <use
           transform="matrix(0.03703703703703704,0,0,0.03703703703703704,37.03703703703704,0)"
           xlink:href="#H"
           id="use2110" />
      </g>
      <path
         fill="#333"
         d="M115-3C79 11 28 4 28-45v-112H4v-33h27l15-45h31v45h36v33H77v99c-1 23 16 31 38 25v30"
         id="M" />
      <path
         fill="#333"
         d="M110-194c64 0 96 36 96 99 0 64-35 99-97 99-61 0-95-36-95-99 0-62 34-99 96-99zm-1 164c35 0 45-28 45-65 0-40-10-65-43-65-34 0-45 26-45 65 0 36 10 65 43 65"
         id="N" />
      <path
         fill="#333"
         d="M147 0L96-86 75-71V0H25v-261h50v150l67-79h53l-66 74L201 0h-54"
         id="O" />
      <path
         fill="#333"
         d="M135-194c87-1 58 113 63 194h-50c-7-57 23-157-34-157-59 0-34 97-39 157H25l-1-190h47c2 12-1 28 3 38 12-26 28-41 61-42"
         id="P" />
      <g
         id="g">
        <use
           transform="matrix(0.03703703703703704,0,0,0.03703703703703704,0,0)"
           xlink:href="#M"
           id="use2117" />
        <use
           transform="matrix(0.03703703703703704,0,0,0.03703703703703704,4.407407407407408,0)"
           xlink:href="#N"
           id="use2119" />
        <use
           transform="matrix(0.03703703703703704,0,0,0.03703703703703704,12.51851851851852,0)"
           xlink:href="#O"
           id="use2121" />
        <use
           transform="matrix(0.03703703703703704,0,0,0.03703703703703704,19.925925925925934,0)"
           xlink:href="#K"
           id="use2123" />
        <use
           transform="matrix(0.03703703703703704,0,0,0.03703703703703704,27.333333333333343,0)"
           xlink:href="#P"
           id="use2125" />
      </g>
      <path
         fill="#333"
         d="M195-6C206 82 75 100 31 46c-4-6-6-13-8-21l49-6c3 16 16 24 34 25 40 0 42-37 40-79-11 22-30 35-61 35-53 0-70-43-70-97 0-56 18-96 73-97 30 0 46 14 59 34l2-30h47zm-90-29c32 0 41-27 41-63 0-35-9-62-40-62-32 0-39 29-40 63 0 36 9 62 39 62"
         id="Q" />
      <g
         id="h">
        <use
           transform="matrix(0.03703703703703704,0,0,0.03703703703703704,0,0)"
           xlink:href="#Q"
           id="use2129" />
        <use
           transform="matrix(0.03703703703703704,0,0,0.03703703703703704,8.111111111111112,0)"
           xlink:href="#K"
           id="use2131" />
        <use
           transform="matrix(0.03703703703703704,0,0,0.03703703703703704,15.51851851851852,0)"
           xlink:href="#M"
           id="use2133" />
      </g>
      <path
         fill="#333"
         d="M135-150c-39-12-60 13-60 57V0H25l-1-190h47c2 13-1 29 3 40 6-28 27-53 61-41v41"
         id="R" />
      <path
         fill="#333"
         d="M121-226c-27-7-43 5-38 36h38v33H83V0H34v-157H6v-33h28c-9-59 32-81 87-68v32"
         id="S" />
      <path
         fill="#333"
         d="M114-157C55-157 80-60 75 0H25v-261h50l-1 109c12-26 28-41 61-42 86-1 58 113 63 194h-50c-7-57 23-157-34-157"
         id="T" />
      <g
         id="i">
        <use
           transform="matrix(0.03703703703703704,0,0,0.03703703703703704,0,0)"
           xlink:href="#R"
           id="use2139" />
        <use
           transform="matrix(0.03703703703703704,0,0,0.03703703703703704,5.185185185185186,0)"
           xlink:href="#K"
           id="use2141" />
        <use
           transform="matrix(0.03703703703703704,0,0,0.03703703703703704,12.592592592592593,0)"
           xlink:href="#S"
           id="use2143" />
        <use
           transform="matrix(0.03703703703703704,0,0,0.03703703703703704,17.000000000000004,0)"
           xlink:href="#R"
           id="use2145" />
        <use
           transform="matrix(0.03703703703703704,0,0,0.03703703703703704,22.185185185185194,0)"
           xlink:href="#K"
           id="use2147" />
        <use
           transform="matrix(0.03703703703703704,0,0,0.03703703703703704,29.592592592592602,0)"
           xlink:href="#H"
           id="use2149" />
        <use
           transform="matrix(0.03703703703703704,0,0,0.03703703703703704,37.00000000000001,0)"
           xlink:href="#T"
           id="use2151" />
      </g>
      <g
         id="j">
        <use
           transform="matrix(0.03703703703703704,0,0,0.03703703703703704,0,0)"
           xlink:href="#Q"
           id="use2154" />
        <use
           transform="matrix(0.03703703703703704,0,0,0.03703703703703704,8.111111111111112,0)"
           xlink:href="#K"
           id="use2156" />
        <use
           transform="matrix(0.03703703703703704,0,0,0.03703703703703704,15.51851851851852,0)"
           xlink:href="#M"
           id="use2158" />
      </g>
      <path
         fill="#333"
         d="M85 4C-2 5 27-109 22-190h50c7 57-23 150 33 157 60-5 35-97 40-157h50l1 190h-47c-2-12 1-28-3-38-12 25-28 42-61 42"
         id="U" />
      <path
         fill="#333"
         d="M25-224v-37h50v37H25zM25 0v-190h50V0H25"
         id="V" />
      <path
         fill="#333"
         d="M88-194c31-1 46 15 58 34l-1-101h50l1 261h-48c-2-10 0-23-3-31C134-8 116 4 84 4 32 4 16-41 15-95c0-56 19-97 73-99zm17 164c33 0 40-30 41-66 1-37-9-64-41-64s-38 30-39 65c0 43 13 65 39 65"
         id="W" />
      <g
         id="k">
        <use
           transform="matrix(0.03703703703703704,0,0,0.03703703703703704,0,0)"
           xlink:href="#I"
           id="use2164" />
        <use
           transform="matrix(0.03703703703703704,0,0,0.03703703703703704,7.407407407407408,0)"
           xlink:href="#U"
           id="use2166" />
        <use
           transform="matrix(0.03703703703703704,0,0,0.03703703703703704,15.51851851851852,0)"
           xlink:href="#M"
           id="use2168" />
        <use
           transform="matrix(0.03703703703703704,0,0,0.03703703703703704,19.925925925925934,0)"
           xlink:href="#T"
           id="use2170" />
        <use
           transform="matrix(0.03703703703703704,0,0,0.03703703703703704,28.037037037037045,0)"
           xlink:href="#K"
           id="use2172" />
        <use
           transform="matrix(0.03703703703703704,0,0,0.03703703703703704,35.44444444444446,0)"
           xlink:href="#P"
           id="use2174" />
        <use
           transform="matrix(0.03703703703703704,0,0,0.03703703703703704,43.55555555555557,0)"
           xlink:href="#M"
           id="use2176" />
        <use
           transform="matrix(0.03703703703703704,0,0,0.03703703703703704,47.962962962962976,0)"
           xlink:href="#V"
           id="use2178" />
        <use
           transform="matrix(0.03703703703703704,0,0,0.03703703703703704,51.66666666666668,0)"
           xlink:href="#L"
           id="use2180" />
        <use
           transform="matrix(0.03703703703703704,0,0,0.03703703703703704,59.07407407407409,0)"
           xlink:href="#I"
           id="use2182" />
        <use
           transform="matrix(0.03703703703703704,0,0,0.03703703703703704,66.4814814814815,0)"
           xlink:href="#M"
           id="use2184" />
        <use
           transform="matrix(0.03703703703703704,0,0,0.03703703703703704,70.8888888888889,0)"
           xlink:href="#K"
           id="use2186" />
        <use
           transform="matrix(0.03703703703703704,0,0,0.03703703703703704,78.2962962962963,0)"
           xlink:href="#W"
           id="use2188" />
      </g>
      <g
         id="l">
        <use
           transform="matrix(0.03703703703703704,0,0,0.03703703703703704,0,0)"
           xlink:href="#R"
           id="use2191" />
        <use
           transform="matrix(0.03703703703703704,0,0,0.03703703703703704,5.185185185185186,0)"
           xlink:href="#K"
           id="use2193" />
        <use
           transform="matrix(0.03703703703703704,0,0,0.03703703703703704,12.592592592592593,0)"
           xlink:href="#H"
           id="use2195" />
        <use
           transform="matrix(0.03703703703703704,0,0,0.03703703703703704,20.000000000000004,0)"
           xlink:href="#N"
           id="use2197" />
        <use
           transform="matrix(0.03703703703703704,0,0,0.03703703703703704,28.111111111111114,0)"
           xlink:href="#U"
           id="use2199" />
        <use
           transform="matrix(0.03703703703703704,0,0,0.03703703703703704,36.22222222222223,0)"
           xlink:href="#R"
           id="use2201" />
        <use
           transform="matrix(0.03703703703703704,0,0,0.03703703703703704,41.40740740740741,0)"
           xlink:href="#L"
           id="use2203" />
        <use
           transform="matrix(0.03703703703703704,0,0,0.03703703703703704,48.814814814814824,0)"
           xlink:href="#K"
           id="use2205" />
      </g>
      <g
         id="m">
        <use
           transform="matrix(0.037037037037037035,0,0,0.037037037037037035,0,0)"
           xlink:href="#V"
           id="use2208" />
        <use
           transform="matrix(0.037037037037037035,0,0,0.037037037037037035,3.7037037037037033,0)"
           xlink:href="#H"
           id="use2210" />
      </g>
      <path
         fill="#333"
         d="M110-251c83-7 118 89 53 130-17 10-36 21-38 46H78c2-56 65-53 71-103 2-21-15-35-38-34-25 1-41 14-44 38l-50-2c6-48 39-70 93-75zM77 0v-47h51V0H77"
         id="X" />
      <g
         id="n">
        <use
           transform="matrix(0.037037037037037035,0,0,0.037037037037037035,0,0)"
           xlink:href="#I"
           id="use2214" />
        <use
           transform="matrix(0.037037037037037035,0,0,0.037037037037037035,7.4074074074074066,0)"
           xlink:href="#U"
           id="use2216" />
        <use
           transform="matrix(0.037037037037037035,0,0,0.037037037037037035,15.518518518518517,0)"
           xlink:href="#M"
           id="use2218" />
        <use
           transform="matrix(0.037037037037037035,0,0,0.037037037037037035,19.925925925925924,0)"
           xlink:href="#T"
           id="use2220" />
        <use
           transform="matrix(0.037037037037037035,0,0,0.037037037037037035,28.037037037037035,0)"
           xlink:href="#K"
           id="use2222" />
        <use
           transform="matrix(0.037037037037037035,0,0,0.037037037037037035,35.44444444444444,0)"
           xlink:href="#P"
           id="use2224" />
        <use
           transform="matrix(0.037037037037037035,0,0,0.037037037037037035,43.55555555555555,0)"
           xlink:href="#M"
           id="use2226" />
        <use
           transform="matrix(0.037037037037037035,0,0,0.037037037037037035,47.96296296296296,0)"
           xlink:href="#V"
           id="use2228" />
        <use
           transform="matrix(0.037037037037037035,0,0,0.037037037037037035,51.666666666666664,0)"
           xlink:href="#L"
           id="use2230" />
        <use
           transform="matrix(0.037037037037037035,0,0,0.037037037037037035,59.07407407407407,0)"
           xlink:href="#I"
           id="use2232" />
        <use
           transform="matrix(0.037037037037037035,0,0,0.037037037037037035,66.48148148148148,0)"
           xlink:href="#M"
           id="use2234" />
        <use
           transform="matrix(0.037037037037037035,0,0,0.037037037037037035,70.88888888888889,0)"
           xlink:href="#K"
           id="use2236" />
        <use
           transform="matrix(0.037037037037037035,0,0,0.037037037037037035,78.29629629629629,0)"
           xlink:href="#W"
           id="use2238" />
        <use
           transform="matrix(0.037037037037037035,0,0,0.037037037037037035,86.4074074074074,0)"
           xlink:href="#X"
           id="use2240" />
      </g>
      <path
         fill="#333"
         d="M135-194c53 0 70 44 70 98 0 56-19 98-73 100-31 1-45-17-59-34 3 33 2 69 2 105H25l-1-265h48c2 10 0 23 3 31 11-24 29-35 60-35zM114-30c33 0 39-31 40-66 0-38-9-64-40-64-56 0-55 130 0 130"
         id="Y" />
      <g
         id="o">
        <use
           transform="matrix(0.03703703703703704,0,0,0.03703703703703704,0,0)"
           xlink:href="#P"
           id="use2244" />
        <use
           transform="matrix(0.03703703703703704,0,0,0.03703703703703704,8.111111111111112,0)"
           xlink:href="#N"
           id="use2246" />
        <use
           transform="matrix(0.03703703703703704,0,0,0.03703703703703704,16.222222222222225,0)"
           xlink:href="#Y"
           id="use2248" />
        <use
           transform="matrix(0.03703703703703704,0,0,0.03703703703703704,24.333333333333336,0)"
           xlink:href="#K"
           id="use2250" />
      </g>
      <path
         fill="#333"
         d="M165-50V0h-47v-50H5v-38l105-160h55v161h33v37h-33zm-47-37l2-116L46-87h72"
         id="Z" />
      <path
         fill="#333"
         d="M101-251c68 0 84 54 84 127C185-50 166 4 99 4S15-52 14-124c-1-75 17-127 87-127zm-1 216c37-5 36-46 36-89s4-89-36-89c-39 0-36 45-36 89 0 43-3 85 36 89"
         id="aa" />
      <path
         fill="#333"
         d="M23 0v-37h61v-169l-59 37v-38l62-41h46v211h57V0H23"
         id="ab" />
      <g
         id="p">
        <use
           transform="matrix(0.03703703703703704,0,0,0.03703703703703704,0,0)"
           xlink:href="#Z"
           id="use2256" />
        <use
           transform="matrix(0.03703703703703704,0,0,0.03703703703703704,7.407407407407408,0)"
           xlink:href="#aa"
           id="use2258" />
        <use
           transform="matrix(0.03703703703703704,0,0,0.03703703703703704,14.814814814814817,0)"
           xlink:href="#ab"
           id="use2260" />
      </g>
      <g
         id="q">
        <use
           transform="matrix(0.03703703703703704,0,0,0.03703703703703704,0,0)"
           xlink:href="#R"
           id="use2263" />
        <use
           transform="matrix(0.03703703703703704,0,0,0.03703703703703704,5.185185185185186,0)"
           xlink:href="#K"
           id="use2265" />
        <use
           transform="matrix(0.03703703703703704,0,0,0.03703703703703704,12.592592592592593,0)"
           xlink:href="#S"
           id="use2267" />
        <use
           transform="matrix(0.03703703703703704,0,0,0.03703703703703704,17.000000000000004,0)"
           xlink:href="#R"
           id="use2269" />
        <use
           transform="matrix(0.03703703703703704,0,0,0.03703703703703704,22.185185185185194,0)"
           xlink:href="#K"
           id="use2271" />
        <use
           transform="matrix(0.03703703703703704,0,0,0.03703703703703704,29.592592592592602,0)"
           xlink:href="#H"
           id="use2273" />
        <use
           transform="matrix(0.03703703703703704,0,0,0.03703703703703704,37.00000000000001,0)"
           xlink:href="#T"
           id="use2275" />
      </g>
      <g
         id="r">
        <use
           transform="matrix(0.03703703703703704,0,0,0.03703703703703704,0,0)"
           xlink:href="#I"
           id="use2278" />
        <use
           transform="matrix(0.03703703703703704,0,0,0.03703703703703704,7.407407407407408,0)"
           xlink:href="#L"
           id="use2280" />
        <use
           transform="matrix(0.03703703703703704,0,0,0.03703703703703704,14.814814814814817,0)"
           xlink:href="#L"
           id="use2282" />
        <use
           transform="matrix(0.03703703703703704,0,0,0.03703703703703704,22.222222222222225,0)"
           xlink:href="#K"
           id="use2284" />
        <use
           transform="matrix(0.03703703703703704,0,0,0.03703703703703704,29.629629629629633,0)"
           xlink:href="#H"
           id="use2286" />
        <use
           transform="matrix(0.03703703703703704,0,0,0.03703703703703704,37.03703703703704,0)"
           xlink:href="#H"
           id="use2288" />
      </g>
      <g
         id="s">
        <use
           transform="matrix(0.03703703703703704,0,0,0.03703703703703704,0,0)"
           xlink:href="#M"
           id="use2291" />
        <use
           transform="matrix(0.03703703703703704,0,0,0.03703703703703704,4.407407407407408,0)"
           xlink:href="#N"
           id="use2293" />
        <use
           transform="matrix(0.03703703703703704,0,0,0.03703703703703704,12.51851851851852,0)"
           xlink:href="#O"
           id="use2295" />
        <use
           transform="matrix(0.03703703703703704,0,0,0.03703703703703704,19.925925925925934,0)"
           xlink:href="#K"
           id="use2297" />
        <use
           transform="matrix(0.03703703703703704,0,0,0.03703703703703704,27.333333333333343,0)"
           xlink:href="#P"
           id="use2299" />
      </g>
    </defs>
  </g>
</svg>
